<?xml version="1.0" encoding="UTF-8"?>
<svg id="Layer_2" data-name="Layer 2" xmlns="http://www.w3.org/2000/svg" viewBox="0 0 100.01 99.93">
  <defs>
    <style>
      .cls-1 {
        fill: #8cb9bd;
        stroke-width: 0px;
      }
    </style>
  </defs>
  <g id="Layer_1-2" data-name="Layer 1-2">
    <path class="cls-1" d="M5,59.93h10v35c0,2.76,2.24,5,5,5h60c2.76,0,5-2.24,5-5v-35h10c1.97,0,3.76-1.16,4.57-2.97.81-1.8.47-3.91-.85-5.38L53.71,1.58c-1.89-2.11-5.54-2.11-7.43,0L1.28,51.58c-1.85,2.05-1.68,5.21.37,7.06.92.83,2.11,1.28,3.34,1.28h.01ZM34.74,58.35c.16.48,4.07,11.58,15.26,11.58s15.21-11.43,15.25-11.55l9.5,3.11c-.25.76-6.24,18.45-24.75,18.45s-24.51-17.69-24.75-18.45l9.49-3.13h0Z"/>
  </g>
</svg>